<?xml version="1.0" encoding="utf-8"?>
<!-- Generator: Adobe Illustrator 21.0.0, SVG Export Plug-In . SVG Version: 6.00 Build 0)  -->
<svg version="1.0" id="Layer_1" xmlns="http://www.w3.org/2000/svg" xmlns:xlink="http://www.w3.org/1999/xlink" x="0px" y="0px"
	 viewBox="0 0 1359.1 281.1" style="enable-background:new 0 0 1359.1 281.1;" xml:space="preserve">
<style type="text/css">
	.st0{fill:#FFFFFF;}
</style>
<g>
	<path class="st0" d="M163.4,192.6L35.2,140.1v-19.7l128.2-52.8v18.7L54.9,130.2l108.5,43.7V192.6z"/>
	<path class="st0" d="M199.4,33h34.3l54,128.6h1L342.2,33h34.3V203h-23V63.3H353L295.6,203h-15.4L222.9,63.3h-0.5V203h-23V33z"/>
	<path class="st0" d="M430,204.4c-4.3,0-8-1.6-11.2-4.7c-3.1-3.1-4.7-6.8-4.7-11.2c0-4.3,1.6-8,4.7-11.2c3.1-3.1,6.8-4.7,11.2-4.7
		c4.3,0,8,1.6,11.2,4.7c3.1,3.1,4.7,6.8,4.7,11.2c0,4.3-1.6,8-4.7,11.2C438.1,202.8,434.3,204.4,430,204.4z"/>
	<path class="st0" d="M485.2,33h23v70.6h88.1V33h23V203h-23v-77.8h-88.1V203h-23V33z"/>
	<path class="st0" d="M658,103.1c6.1-5.6,13.1-9.8,21.1-12.6c8-2.8,16-4.2,24-4.2c8.3,0,15.5,1,21.5,3.1c6,2.1,10.9,4.9,14.8,8.4
		c3.8,3.5,6.7,7.6,8.5,12.1s2.8,9.3,2.8,14.3v58.1c0,4,0.1,7.7,0.3,11c0.2,3.4,0.4,6.6,0.7,9.6h-19.2c-0.5-5.8-0.7-11.5-0.7-17.3
		h-0.5c-4.8,7.4-10.5,12.6-17,15.6c-6.6,3-14.2,4.6-22.8,4.6c-5.3,0-10.3-0.7-15.1-2.2c-4.8-1.4-9-3.6-12.6-6.5s-6.4-6.4-8.5-10.7
		c-2.1-4.2-3.1-9.2-3.1-14.8c0-7.4,1.6-13.5,4.9-18.5c3.3-5,7.8-9,13.4-12.1c5.7-3.1,12.3-5.4,19.9-6.7c7.6-1.4,15.7-2,24.4-2h15.8
		v-4.8c0-2.9-0.6-5.8-1.7-8.6s-2.8-5.5-5-7.8c-2.2-2.3-5-4.2-8.4-5.5c-3.4-1.4-7.4-2-12-2c-4.2,0-7.8,0.4-10.9,1.2
		c-3.1,0.8-6,1.8-8.5,3c-2.6,1.2-4.9,2.6-7,4.2c-2.1,1.6-4.1,3.1-6,4.6L658,103.1z M719,148.2c-5.1,0-10.4,0.3-15.7,0.8
		c-5.4,0.6-10.2,1.6-14.6,3.2c-4.4,1.6-8,3.8-10.8,6.7c-2.8,2.9-4.2,6.6-4.2,11c0,6.6,2.2,11.3,6.6,14.2c4.4,2.9,10.4,4.3,17.9,4.3
		c5.9,0,11-1,15.1-3c4.2-2,7.5-4.6,10.1-7.8c2.6-3.2,4.4-6.8,5.5-10.7c1.1-3.9,1.7-7.8,1.7-11.6v-7.2H719z"/>
	<path class="st0" d="M896.1,202c0,8.6-1.5,16.5-4.4,23.6c-3,7.1-7.2,13.3-12.6,18.5c-5.4,5.2-12,9.2-19.7,12.1
		c-7.7,2.9-16.2,4.3-25.4,4.3c-10.9,0-20.8-1.5-29.9-4.6c-9-3-17.6-8.3-25.8-15.8l14.6-18.2c5.6,6.1,11.7,10.7,18.2,13.8
		c6.6,3.1,14,4.7,22.3,4.7c8,0,14.6-1.2,19.9-3.5c5.3-2.3,9.5-5.3,12.6-9c3.1-3.7,5.3-7.9,6.6-12.6c1.3-4.7,1.9-9.5,1.9-14.3v-16.8
		h-0.7c-4.2,6.9-9.8,12-16.9,15.2c-7.1,3.3-14.6,4.9-22.4,4.9c-8.3,0-16-1.5-23.1-4.4c-7.1-3-13.2-7-18.4-12.2
		c-5.1-5.2-9.1-11.4-12-18.5c-2.9-7.1-4.3-14.8-4.3-23.2c0-8.3,1.3-16.1,4.1-23.4c2.7-7.3,6.6-13.6,11.6-19.1
		c5-5.4,11.1-9.7,18.2-12.7c7.1-3,15.1-4.6,23.9-4.6c7.7,0,15.2,1.7,22.4,5c7.3,3.4,13,8.1,17.2,14.2h0.5V89.2h21.6V202z
		 M837.1,106.5c-5.8,0-11,1-15.6,3c-4.6,2-8.6,4.7-11.8,8.2c-3.2,3.4-5.7,7.6-7.4,12.5c-1.8,4.9-2.6,10.2-2.6,16
		c0,11.5,3.4,20.8,10.1,27.7c6.7,7,15.8,10.4,27.4,10.4c11.5,0,20.6-3.5,27.3-10.4c6.7-7,10.1-16.2,10.1-27.7c0-5.8-0.9-11.1-2.6-16
		c-1.8-4.9-4.2-9-7.4-12.5c-3.2-3.4-7.1-6.2-11.8-8.2C848,107.5,842.8,106.5,837.1,106.5z"/>
	<path class="st0" d="M945,154c0,5,1.1,9.5,3.2,13.6c2.2,4.1,5,7.6,8.5,10.4c3.5,2.9,7.6,5.1,12.2,6.7c4.6,1.6,9.4,2.4,14.4,2.4
		c6.7,0,12.6-1.6,17.5-4.7c5-3.1,9.5-7.2,13.7-12.4l16.3,12.5c-12,15.5-28.8,23.3-50.4,23.3c-9,0-17.1-1.5-24.4-4.6
		c-7.3-3-13.5-7.2-18.5-12.6c-5-5.4-8.9-11.7-11.6-19c-2.7-7.3-4.1-15.2-4.1-23.6c0-8.5,1.5-16.4,4.4-23.6c2.9-7.3,7-13.6,12.2-19
		c5.2-5.4,11.4-9.6,18.6-12.6c7.2-3,15-4.6,23.5-4.6c10.1,0,18.6,1.8,25.6,5.3c7,3.5,12.7,8.1,17.1,13.8c4.5,5.7,7.7,12.1,9.7,19.2
		c2,7.1,3,14.4,3,21.7v7.7H945z M1013.2,136.7c-0.2-4.8-0.9-9.2-2.3-13.2c-1.3-4-3.4-7.5-6.1-10.4c-2.7-3-6.1-5.3-10.2-7
		c-4.1-1.7-8.8-2.5-14.3-2.5c-5.3,0-10.1,1-14.5,3c-4.4,2-8.1,4.6-11.2,7.8c-3,3.2-5.4,6.8-7.1,10.7c-1.7,3.9-2.5,7.8-2.5,11.6
		H1013.2z"/>
	<path class="st0" d="M1062.2,89.2h21.6v17.5h0.5c2.7-6.1,7.4-11,14.2-14.8c6.7-3.8,14.5-5.6,23.3-5.6c5.4,0,10.7,0.8,15.7,2.5
		c5,1.7,9.4,4.3,13.2,7.8c3.8,3.5,6.8,8,9,13.6c2.2,5.5,3.4,12,3.4,19.6V203h-21.6v-67.2c0-5.3-0.7-9.8-2.2-13.6
		c-1.4-3.8-3.4-6.8-5.8-9.1c-2.4-2.3-5.2-4-8.3-5c-3.1-1-6.3-1.6-9.7-1.6c-4.5,0-8.7,0.7-12.5,2.2c-3.8,1.4-7.2,3.7-10.1,6.8
		c-2.9,3.1-5.1,7.1-6.7,11.9c-1.6,4.8-2.4,10.5-2.4,17V203h-21.6V89.2z"/>
	<path class="st0" d="M1195.1,67.8l128.2,52.6v19.7l-128.2,52.8v-18.7l108.5-43.9l-108.5-43.7V67.8z"/>
</g>
</svg>
